<svg xmlns="http://www.w3.org/2000/svg" width="1008" height="492" viewBox="0 0 1091.75 532.68" shape-rendering="geometricPrecision" text-rendering="geometricPrecision" image-rendering="optimizeQuality" fill-rule="evenodd" clip-rule="evenodd"><defs><style>.fil0{fill:#223260;fill-rule:nonzero}</style></defs><g id="Layer_x0020_1"><g id="_462494412496"><path class="fil0" d="M2.28 1.34C114.43 41.35 226.61 43.5 338.76 0v46.97C217.7 80.48 105.82 63.77 2.28 1.34zm-.16.26c58.32 85.65 164.3 131.3 292.94 132.99v282.16c23.76-28.07 41.78-60.64 43.96-105.6-.33-71.07-.67-142.14-1.01-213.2C219.1 113.46 66.38 68.81 2.12 1.6zm-.15 1.46c40.74 113.8 115.17 168.42 208.47 189.82v310.34c14.74-13.5 29.46-27.01 44.2-40.51V168.57C154.89 157.63 68.03 109.94 1.97 3.06zm-1.14.32C.55 106.87.27 210.34 0 313.81c10.43 81.63 83.46 151.47 169.51 218.87-.41-103.82-.85-207.65-1.26-311.47C91.78 177.31 27.4 116.63.83 3.38zm518.19 332.55v52.4h-11.93c-8.97 0-17.9-6.38-18.52-15.27V256.7c0-4.27 1.49-7.91 4.49-10.91 3-2.99 6.65-4.49 10.92-4.49h50.08c15.7 0 27.42 3.98 35.12 11.98 8 7.99 11.98 19.87 11.98 35.57 0 14.8-3.84 26.52-11.55 35.1-7.69 7.99-18.83 11.98-33.35 11.98h-37.24zm0-26.5h29.49c7.97 0 13.66-1.72 17.09-5.15 3.68-3.13 5.55-8.58 5.55-16.32 0-6.57-1.71-11.86-5.11-15.88-4.01-3.42-9.27-5.15-15.84-5.15h-31.18v42.5zm87.61 63.63V256.7c0-4.27 1.5-7.91 4.5-10.91 2.99-2.99 6.64-4.49 10.94-4.49h56.14c16 0 27.87 3.44 35.57 10.27 8 7.12 12.01 17.54 12.01 31.25 0 9.09-2.01 16.63-6.03 22.66-3.42 5.69-8.9 9.83-16.36 12.38 6.58 2.31 11.15 5.73 13.73 10.29 2.56 4.27 4.12 11.54 4.71 21.83l.85 17.53v5.58c0 2 .15 3.83.42 5.55.88 5.14 2.57 8.43 5.16 9.86h-33.43c-1.43-2.85-2.31-5.84-2.6-8.98-.55-4.6-.85-7.75-.85-9.43l-.43-15.88c-.58-8.54-2.26-14.67-5.15-18.39-3.11-3.14-8.69-4.71-16.64-4.71h-32.09v57.22h-11.93c-8.98 0-17.9-6.38-18.52-15.27zm30.45-67.58h35.55c7.71 0 13.44-1.57 17.13-4.7 3.72-3.14 5.58-8 5.58-14.58 0-6.57-1.86-11.43-5.58-14.56-3.4-3.43-8.55-5.14-15.4-5.14h-37.28v38.98zm97.03 67.58V256.7c0-4.27 1.49-7.91 4.49-10.91 3-2.99 6.64-4.49 10.95-4.49h91.55v14l-.18.35c-2.94 6.22-7.5 9.83-13.65 10.85h-63.16v31.76h57.32v9.82c0 4.26-1.51 7.87-4.49 10.87-3 3-6.61 4.49-10.92 4.49h-41.91v37.67h76.99v15.73l-.18.35c-3.52 7.44-9.35 11.15-17.47 11.15h-16.73v.16h-37.37v-.17h-16.73c-8.96 0-17.9-6.38-18.51-15.27zm112.03-30.34h16.5c5.81.03 10.94 3.6 14.38 7.95 1.41 1.79 1.92 2.37 3.01 4.08 1.56 2.51 3.52 4.52 5.91 6.04 5.69 4.01 13.55 6.01 23.54 6.01 8.84 0 15.55-1.56 20.11-4.7 4.57-3.14 6.83-7.71 6.83-13.69 0-9.13-12.81-16.53-38.47-22.26l-.85-.4s-1.12-.3-3.43-.88c-14.53-3.14-24.2-6.42-29.06-9.82-5.69-3.14-9.67-7.74-11.97-13.74-2.85-5.1-4.27-11.67-4.27-19.66 0-13.98 4.86-24.98 14.56-32.97 9.72-7.7 23.84-11.53 42.38-11.53 17.42 0 30.82 3.98 40.24 11.97 9.67 8.86 14.81 20.41 15.36 34.68h-17.08c-6.56 0-11.28-3-14.13-9.03-1.42-2.84-3.43-5.29-5.98-7.29-5.15-3.73-12.12-5.59-20.96-5.59-8.58 0-14.72 1.58-18.39 4.72-4.28 3.13-6.43 7.55-6.43 13.24 0 7.7 8.24 13.44 24.76 17.13 4.84 1.43 8.39 2.29 10.65 2.6 5.14 1.71 9.6 3.06 13.47 4.04 3.83.99 6.89 1.78 9.15 2.34 4.03 1.71 8.01 3.43 12.03 5.15 5.69 3.43 10.14 7.84 13.28 13.28 3.14 5.98 4.71 12.55 4.71 19.67 0 15.41-5.15 27.39-15.44 35.97-10.26 7.99-24.82 11.97-43.67 11.97-19.37 0-33.91-4.13-43.62-12.41-10.55-8.28-16.24-20.6-17.12-36.87zm125.75 0h16.5c5.83.03 10.95 3.6 14.38 7.95 1.55 1.96 2 2.48 3.34 4.57 1.5 2.29 3.36 4.13 5.58 5.55 5.7 4.01 13.54 6.01 23.56 6.01 8.82 0 15.54-1.56 20.11-4.7 4.55-3.14 6.82-7.71 6.82-13.69 0-9.13-12.82-16.53-38.49-22.26l-.82-.4s-1.14-.3-3.43-.88c-14.54-3.14-24.21-6.42-29.06-9.82-5.7-3.14-9.67-7.74-11.98-13.74-2.85-5.1-4.28-11.67-4.28-19.66 0-13.98 4.86-24.98 14.58-32.97 9.7-7.7 23.83-11.53 42.38-11.53 17.4 0 30.81 3.98 40.22 11.97 9.67 8.86 14.83 20.41 15.38 34.68h-17.08c-6.58 0-11.29-3-14.13-9.03a21.279 21.279 0 00-6-7.29c-5.14-3.73-12.12-5.59-20.95-5.59-8.57 0-14.71 1.58-18.4 4.72-4.26 3.13-6.43 7.55-6.43 13.24 0 7.7 8.26 13.44 24.76 17.13 4.86 1.43 8.39 2.29 10.65 2.6 5.16 1.71 9.61 3.06 13.47 4.04 3.85.99 6.91 1.78 9.17 2.34 4.01 1.71 7.99 3.43 12.01 5.15 5.7 3.43 10.15 7.84 13.28 13.28 3.15 5.98 4.72 12.55 4.72 19.67 0 15.41-5.15 27.39-15.45 35.97-10.26 7.99-24.82 11.97-43.66 11.97-19.38 0-33.9-4.13-43.62-12.41-10.55-8.28-16.23-20.6-17.13-36.87zm-32.36-186.78h22.02c6.35.34 11.92 4.32 15.7 9.1 1.78 2.25 2.31 2.85 3.83 5.26l.03-.01c1.97 3.35 4.51 6.01 7.61 7.99 7.04 4.95 16.75 7.45 29.11 7.45 10.93 0 19.22-1.94 24.86-5.83 5.65-3.88 8.45-9.52 8.45-16.92 0-11.28-15.84-20.45-47.56-27.54l-1.05-.49s-1.4-.35-4.24-1.09c-17.96-3.87-29.91-7.94-35.92-12.13-7.05-3.89-11.96-9.57-14.81-16.98-3.52-6.32-5.27-14.44-5.27-24.32 0-17.29 5.99-30.87 18-40.75 12.01-9.52 29.48-14.26 52.41-14.26 21.52 0 38.09 4.92 49.72 14.8 11.97 10.96 18.32 25.23 19.01 42.88h-21.13c-8.12 0-13.94-3.71-17.47-11.15-1.75-3.52-4.24-6.55-7.39-9.02-6.37-4.61-14.99-6.91-25.91-6.91-10.6 0-18.19 1.94-22.74 5.82-5.28 3.89-7.95 9.34-7.95 16.39 0 9.52 10.21 16.6 30.6 21.15 6.01 1.77 10.38 2.85 13.17 3.22 6.37 2.11 11.87 3.78 16.66 5 4.75 1.22 8.53 2.21 11.33 2.89 4.97 2.12 9.89 4.24 14.85 6.36 7.03 4.25 12.53 9.71 16.43 16.43 3.87 7.41 5.82 15.53 5.82 24.32 0 19.05-6.36 33.86-19.09 44.45-12.69 9.89-30.7 14.81-53.98 14.81-23.97 0-41.93-5.1-53.94-15.34-13.04-10.25-20.08-25.45-21.16-45.58zM854.2 67.08l-25.42 77.22h50.78L854.2 67.08zm-8.49-36.52h29.65l66.07 181.97H915.8c-7.57 0-15.38-4.45-17.64-11.3l-.74-2.22-7.79-24.11h-70.86l-7.58 24.49c-.4.67-.77 1.33-1.12 2.02-3.35 7.09-8.8 10.79-16.33 11.12h-26.28l60.29-169.78c3.15-8.13 9.16-12.19 17.96-12.19zM623.98 197.24V49.61c0-5.29 1.86-9.79 5.55-13.5 3.7-3.69 8.21-5.55 13.55-5.55h113.18v15.82c-.61 8.92-9.55 15.3-18.51 15.3h-16.73v.02h-59.94v39.27h70.86v12.13c0 5.29-1.85 9.75-5.55 13.46-3.71 3.7-8.17 5.55-13.51 5.55h-51.8v46.57h95.18L756.2 200c-.28.79-.4 1.72-.75 2.42l-.03.02-.06.03c-.05.11-.12.21-.19.3l-.01.02-.01.01-.01.02-.01.01-.01.01-.01.02-.01.01-.01.02-.02.01-.01.01v.01l-.02.02-.01.02-.01.01-.01.02-.02.01-.01.01-.01.02-.01.01-.02.03c-.09.11-.17.21-.23.32-2.55 4.97-6.6 7.97-11.73 9.14H642.49c-8.96 0-17.9-6.38-18.51-15.29zM520.68 62.79H485.8V30.56h125.95v16.95c-.61 8.87-9.49 15.23-18.42 15.28h-72.65z"/><path class="fil0" d="M558.31 62.75h-37.64v134.49c.62 8.9 9.53 15.3 18.51 15.3h19.13V62.75zm-43.85-32.19v32.23h-47.19V45.85c.61-8.88 9.49-15.24 18.44-15.29h28.75z"/><path class="fil0" d="M519.8 30.56l-15.09 32.23h-47.17l7.92-16.94c4.76-8.88 16.62-15.24 25.59-15.29h28.75z"/></g></g></svg>